<svg width="30" height="30" viewBox="0 0 30 30" fill="none" xmlns="http://www.w3.org/2000/svg">
<rect width="30" height="30" rx="8" fill="#37CB12"/>
<path fill-rule="evenodd" clip-rule="evenodd" d="M8 6C6.89543 6 6 6.89543 6 8V12C6 13.1046 6.89543 14 8 14H22C23.1046 14 24 13.1046 24 12V8C24 6.89543 23.1046 6 22 6H8ZM8 16C6.89543 16 6 16.8954 6 18V22C6 23.1046 6.89543 24 8 24H22C23.1046 24 24 23.1046 24 22V18C24 16.8954 23.1046 16 22 16H8Z" fill="url(#paint0_linear_1_341)"/>
<defs>
<linearGradient id="paint0_linear_1_341" x1="15" y1="6" x2="15" y2="24" gradientUnits="userSpaceOnUse">
<stop stop-color="white"/>
<stop offset="1" stop-color="white" stop-opacity="0"/>
</linearGradient>
</defs>
</svg>
