<svg width="30" height="30" viewBox="0 0 30 30" fill="none" xmlns="http://www.w3.org/2000/svg">
<rect width="30" height="30" rx="8" fill="#433D51"/>
<path d="M19.2165 13.4426L11.8608 9.19278C11.6505 9.06838 11.4111 9.00187 11.1668 9C10.7827 9 10.4144 9.15256 10.1429 9.42411C9.87131 9.69567 9.71875 10.064 9.71875 10.448V19.5688C9.7188 19.8236 9.78712 20.0738 9.9166 20.2933C10.0461 20.5128 10.232 20.6936 10.455 20.817C10.678 20.9403 10.93 21.0016 11.1848 20.9946C11.4395 20.9875 11.6878 20.9124 11.9036 20.7769L19.2679 16.1244C19.4969 15.9811 19.6849 15.7809 19.8135 15.5434C19.9421 15.3058 20.007 15.039 20.0018 14.7689C19.9966 14.4988 19.9215 14.2347 19.7839 14.0023C19.6463 13.7698 19.4508 13.577 19.2165 13.4426Z" fill="url(#paint0_linear_1_298)"/>
<defs>
<linearGradient id="paint0_linear_1_298" x1="14.8604" y1="9" x2="14.8604" y2="20.9951" gradientUnits="userSpaceOnUse">
<stop stop-color="white"/>
<stop offset="1" stop-color="white" stop-opacity="0"/>
</linearGradient>
</defs>
</svg>
