<svg width="30" height="30" viewBox="0 0 30 30" fill="none" xmlns="http://www.w3.org/2000/svg">
<rect width="30" height="30" rx="8" fill="#580BFB"/>
<path fill-rule="evenodd" clip-rule="evenodd" d="M11 5C8.23858 5 6 7.23858 6 10H24C24 7.23858 21.7614 5 19 5H11ZM6.5 11C6.22386 11 6 11.2239 6 11.5V22C6 23.6569 7.34315 25 9 25H21C22.6569 25 24 23.6569 24 22V11.5C24 11.2239 23.7761 11 23.5 11H6.5Z" fill="url(#paint0_linear_1_314)"/>
<path d="M18.9719 15.1977C18.7141 14.9396 18.2955 14.9397 18.0373 15.1977L13.8309 19.4043L11.9614 17.5347C11.7032 17.2766 11.2848 17.2766 11.0266 17.5347C10.7685 17.7929 10.7685 18.2114 11.0266 18.4695L13.3635 20.8063C13.4925 20.9353 13.6616 21 13.8308 21C13.9999 21 14.1692 20.9355 14.2982 20.8063L18.9719 16.1325C19.2301 15.8745 19.2301 15.4559 18.9719 15.1977Z" fill="#580BFB"/>
<defs>
<linearGradient id="paint0_linear_1_314" x1="15" y1="5" x2="15" y2="25" gradientUnits="userSpaceOnUse">
<stop stop-color="white"/>
<stop offset="1" stop-color="white" stop-opacity="0"/>
</linearGradient>
</defs>
</svg>
