<svg width="6" height="9" viewBox="0 0 6 9" fill="none" xmlns="http://www.w3.org/2000/svg">
<path d="M5.1662 3.43529C5.12646 3.39582 5.08254 3.36081 5.0352 3.33087L1.93135 0.227166C1.78587 0.0817004 1.58856 -1.34669e-05 1.38283 1.66471e-09C1.17709 1.34702e-05 0.979793 0.0817532 0.834328 0.227237C0.688863 0.372722 0.607149 0.570033 0.607163 0.775765C0.607176 0.981498 0.688916 1.1788 0.8344 1.32426L3.50762 3.9972L0.820898 6.68421C0.675471 6.82962 0.593763 7.02684 0.59375 7.2325C0.593743 7.33432 0.613793 7.43516 0.652755 7.52924C0.691717 7.62332 0.748828 7.7088 0.820826 7.78081C0.892825 7.85282 0.978302 7.90994 1.07238 7.94891C1.16645 7.98789 1.26728 8.00795 1.36911 8.00796C1.57476 8.00797 1.77199 7.92629 1.91742 7.78088L5.0352 4.66353C5.08254 4.6336 5.12647 4.59859 5.1662 4.55911C5.23983 4.48553 5.29781 4.39783 5.33667 4.30126C5.37552 4.20469 5.39444 4.10127 5.39228 3.9972C5.39452 3.89312 5.37564 3.78967 5.33678 3.69309C5.29793 3.59652 5.2399 3.50882 5.1662 3.43529Z" fill="#7A7A7A"/>
</svg>
