<svg width="30" height="30" viewBox="0 0 30 30" fill="none" xmlns="http://www.w3.org/2000/svg">
<rect width="30" height="30" rx="8" fill="#49DC6A"/>
<path d="M13.3077 8.87037C13.3077 11.0079 11.6029 12.7407 9.5 12.7407C7.39707 12.7407 5.69231 11.0079 5.69231 8.87037C5.69231 6.73282 7.39707 5 9.5 5C11.6029 5 13.3077 6.73282 13.3077 8.87037Z" fill="url(#paint0_linear_1_360)"/>
<path d="M5 16.963C5 15.0197 6.54978 13.4444 8.46154 13.4444H10.5385C12.4502 13.4444 14 15.0197 14 16.963V24H5V16.963Z" fill="url(#paint1_linear_1_360)"/>
<path d="M23.3077 8.87037C23.3077 11.0079 21.6029 12.7407 19.5 12.7407C17.3971 12.7407 15.6923 11.0079 15.6923 8.87037C15.6923 6.73282 17.3971 5 19.5 5C21.6029 5 23.3077 6.73282 23.3077 8.87037Z" fill="url(#paint2_linear_1_360)"/>
<path d="M15 16.963C15 15.0197 16.5498 13.4444 18.4615 13.4444H20.5385C22.4502 13.4444 24 15.0197 24 16.963V24H15V16.963Z" fill="url(#paint3_linear_1_360)"/>
<defs>
<linearGradient id="paint0_linear_1_360" x1="9.5" y1="5" x2="9.5" y2="24" gradientUnits="userSpaceOnUse">
<stop stop-color="white"/>
<stop offset="1" stop-color="white" stop-opacity="0"/>
</linearGradient>
<linearGradient id="paint1_linear_1_360" x1="9.5" y1="5" x2="9.5" y2="24" gradientUnits="userSpaceOnUse">
<stop stop-color="white"/>
<stop offset="1" stop-color="white" stop-opacity="0"/>
</linearGradient>
<linearGradient id="paint2_linear_1_360" x1="19.5" y1="5" x2="19.5" y2="24" gradientUnits="userSpaceOnUse">
<stop stop-color="white"/>
<stop offset="1" stop-color="white" stop-opacity="0"/>
</linearGradient>
<linearGradient id="paint3_linear_1_360" x1="19.5" y1="5" x2="19.5" y2="24" gradientUnits="userSpaceOnUse">
<stop stop-color="white"/>
<stop offset="1" stop-color="white" stop-opacity="0"/>
</linearGradient>
</defs>
</svg>
